<?xml version="1.0" encoding="UTF-8"?>
<!DOCTYPE svg PUBLIC "-//W3C//DTD SVG 1.1//EN" "http://www.w3.org/Graphics/SVG/1.1/DTD/svg11.dtd">
<!-- Creator: CorelDRAW X6 -->
<svg xmlns="http://www.w3.org/2000/svg" xml:space="preserve" width="10.936mm" height="11.2895mm" version="1.1" style="shape-rendering:geometricPrecision; text-rendering:geometricPrecision; image-rendering:optimizeQuality; fill-rule:evenodd; clip-rule:evenodd"
viewBox="0 0 367 379"
 xmlns:xlink="http://www.w3.org/1999/xlink">
 <defs>
  <style type="text/css">
   <![CDATA[
    .str0 {stroke:black;stroke-width:8.3865;stroke-linecap:round}
    .fil0 {fill:none}
    .fil5 {fill:black}
    .fil6 {fill:#00B3FF}
    .fil1 {fill:#00DAB3}
    .fil8 {fill:#545400}
    .fil7 {fill:#B38754}
    .fil4 {fill:red}
    .fil2 {fill:#FFDAB3}
    .fil3 {fill:white}
   ]]>
  </style>
    <clipPath id="id0">
     <path d="M275 119c3,2 8,5 12,8 4,3 7,5 8,6 1,2 1,3 -3,6 -4,3 -10,8 -18,14 -8,6 -17,14 -25,20 -8,6 -15,11 -19,19 -4,8 -4,20 -5,26 0,6 0,6 -1,6 0,0 -1,0 -17,0 -8,0 -20,0 -31,0 -12,0 -19,0 -31,0 -12,0 -16,0 -17,0 0,0 0,0 0,-6 0,-6 -1,-18 -5,-26 -4,-8 -11,-13 -19,-19 -8,-6 -17,-13 -25,-20 -8,-6 -15,-11 -18,-14 -4,-3 -4,-4 -3,-6 1,-2 4,-4 8,-6 4,-3 9,-6 12,-8 3,-2 4,-2 8,2 4,4 12,12 19,16 7,4 12,4 17,4 5,0 11,0 14,0 3,0 4,0 4,-3 0,-3 0,-8 1,-11 1,-3 2,-4 11,-4 6,0 16,0 25,0 9,0 19,0 25,0 9,0 10,1 11,4 1,3 1,8 1,11 0,3 1,3 4,3 3,0 8,0 14,0 5,0 10,0 17,-4 7,-4 15,-12 19,-16 4,-4 5,-4 8,-2z"/>
    </clipPath>
 </defs>
 <g id="Слой_x0020_1">
  <metadata id="CorelCorpID_0Corel-Layer"/>
  <g id="_693038752">
   <rect class="fil0" width="367" height="379"/>
   <path class="fil1" d="M225 225c9,6 19,35 28,66 6,20 0,44 -7,56 -5,8 -16,8 -23,8 -8,0 -8,-5 -11,-11 -5,-10 -11,-24 -11,-45 0,-6 0,-12 0,-18 0,-7 -16,-11 -21,-17l-6 0c-5,5 -22,10 -21,17 0,6 0,12 0,18 0,21 -6,36 -11,45 -3,7 -3,11 -11,11 -8,0 -18,0 -23,-8 -7,-11 -13,-35 -7,-56 10,-32 19,-62 29,-67l0 -3 96 0 0 4z"/>
   <path class="fil2" d="M79 117c-3,-4 -9,-11 -15,-20 -6,-9 -12,-19 -13,-33 -1,-14 3,-30 6,-39 3,-9 5,-9 7,-10 3,-1 6,-2 9,-3 3,-1 5,-2 6,-4 1,-2 1,-4 0,-5 -1,-2 -2,-3 -4,-3 -2,0 -6,0 -8,1 -3,0 -5,0 -6,2 -1,2 -2,4 -3,6 -1,2 -2,3 -3,3 -2,0 -4,0 -5,-2 -1,-2 -1,-5 -3,-6 -1,-2 -4,-2 -8,-2 -4,-1 -10,-1 -13,-1 -3,1 -4,3 -4,4 -1,2 -2,4 0,7 1,3 4,8 6,13 2,6 2,13 3,22 1,9 1,20 2,30 1,10 4,20 9,29 5,10 13,20 18,25 5,5 6,6 7,6 2,0 4,-1 7,-2 2,-1 5,-4 6,-6 2,-2 2,-4 3,-5 0,-1 0,-2 -3,-7z"/>
   <path class="fil2" d="M275 117c3,-4 9,-11 15,-20 6,-9 12,-19 13,-33 1,-14 -3,-30 -6,-39 -3,-9 -5,-9 -7,-10 -3,-1 -6,-2 -9,-3 -3,-1 -5,-2 -6,-4 -1,-2 -1,-4 0,-5 1,-2 2,-3 4,-3 2,0 6,0 8,1 3,0 5,0 6,2 1,2 2,4 3,6 1,2 2,3 3,3 2,0 4,0 5,-2 1,-2 1,-5 3,-6 1,-2 4,-2 8,-2 4,-1 10,-1 13,-1 3,1 4,3 4,4 1,2 2,4 0,7 -1,3 -4,8 -6,13 -2,6 -2,13 -3,22 -1,9 -1,20 -2,30 -1,10 -4,20 -9,29 -5,10 -13,20 -18,25 -5,5 -6,6 -7,6 -2,0 -4,-1 -7,-2 -2,-1 -5,-4 -6,-6 -2,-2 -2,-4 -3,-5 0,-1 0,-2 3,-7z"/>
   <path class="fil3" d="M275 119c3,2 8,5 12,8 4,3 7,5 8,6 1,2 1,3 -3,6 -4,3 -10,8 -18,14 -8,6 -17,14 -25,20 -8,6 -15,11 -19,19 -4,8 -4,20 -5,26 0,6 0,6 -1,6 0,0 -1,0 -17,0 -8,0 -20,0 -31,0 -12,0 -19,0 -31,0 -12,0 -16,0 -17,0 0,0 0,0 0,-6 0,-6 -1,-18 -5,-26 -4,-8 -11,-13 -19,-19 -8,-6 -17,-13 -25,-20 -8,-6 -15,-11 -18,-14 -4,-3 -4,-4 -3,-6 1,-2 4,-4 8,-6 4,-3 9,-6 12,-8 3,-2 4,-2 8,2 4,4 12,12 19,16 7,4 12,4 17,4 5,0 11,0 14,0 3,0 4,0 4,-3 0,-3 0,-8 1,-11 1,-3 2,-4 11,-4 6,0 16,0 25,0 9,0 19,0 25,0 9,0 10,1 11,4 1,3 1,8 1,11 0,3 1,3 4,3 3,0 8,0 14,0 5,0 10,0 17,-4 7,-4 15,-12 19,-16 4,-4 5,-4 8,-2z"/>
   <g style="clip-path:url(#id0)">
    <g>
     <rect class="fil4" x="49" y="141" width="253.588" height="24.2752"/>
     <rect class="fil4" x="110" y="187" width="152.326" height="25.7296"/>
    </g>
   </g>
   <path class="fil0" d="M275 119c3,2 8,5 12,8 4,3 7,5 8,6 1,2 1,3 -3,6 -4,3 -10,8 -18,14 -8,6 -17,14 -25,20 -8,6 -15,11 -19,19 -4,8 -4,20 -5,26 0,6 0,6 -1,6 0,0 -1,0 -17,0 -8,0 -20,0 -31,0 -12,0 -19,0 -31,0 -12,0 -16,0 -17,0 0,0 0,0 0,-6 0,-6 -1,-18 -5,-26 -4,-8 -11,-13 -19,-19 -8,-6 -17,-13 -25,-20 -8,-6 -15,-11 -18,-14 -4,-3 -4,-4 -3,-6 1,-2 4,-4 8,-6 4,-3 9,-6 12,-8 3,-2 4,-2 8,2 4,4 12,12 19,16 7,4 12,4 17,4 5,0 11,0 14,0 3,0 4,0 4,-3 0,-3 0,-8 1,-11 1,-3 2,-4 11,-4 6,0 16,0 25,0 9,0 19,0 25,0 9,0 10,1 11,4 1,3 1,8 1,11 0,3 1,3 4,3 3,0 8,0 14,0 5,0 10,0 17,-4 7,-4 15,-12 19,-16 4,-4 5,-4 8,-2z"/>
   <ellipse class="fil2" cx="177" cy="76" rx="97" ry="56"/>
   <path class="fil0 str0" d="M146 97c11,8 21,15 32,15 10,0 21,-8 31,-15"/>
   <circle class="fil5" cx="225" cy="58" r="12"/>
   <circle class="fil6" cx="220" cy="62" r="6"/>
   <circle class="fil5" cx="129" cy="58" r="12"/>
   <circle class="fil6" cx="134" cy="62" r="6"/>
   <ellipse class="fil0" cx="177" cy="88" rx="13" ry="6"/>
   <path class="fil2" d="M246 33c2,-7 2,-20 1,-27 -1,-7 -5,-7 -10,-4 -6,3 -13,9 -18,13 -5,4 -6,8 -7,10 -1,2 -1,3 1,5 2,2 5,4 10,5 5,2 10,3 14,4 4,1 7,1 9,-5z"/>
   <path class="fil7" d="M239 21c1,-2 1,-7 0,-9 0,-2 -2,-2 -3,-1 -2,1 -4,3 -6,4 -2,2 -2,3 -2,3 0,1 0,1 0,2 1,1 2,1 3,2 2,1 3,1 5,1 1,0 2,0 3,-2z"/>
   <path class="fil2" d="M108 33c-2,-7 -2,-20 -1,-27 1,-7 5,-7 10,-4 6,3 13,9 18,13 5,4 6,8 7,10 1,2 1,3 -1,5 -2,2 -5,4 -10,5 -5,2 -10,3 -14,4 -4,1 -7,1 -9,-5z"/>
   <path class="fil7" d="M115 21c-1,-2 -1,-7 0,-9 0,-2 2,-2 3,-1 2,1 4,3 6,4 2,2 2,3 2,3 0,1 0,1 0,2 -1,1 -2,1 -3,2 -2,1 -3,1 -5,1 -1,0 -2,0 -3,-2z"/>
   <path class="fil7" d="M106 342l34 0c1,0 1,1 1,1l0 9c0,0 0,0 0,1l8 0c2,0 3,1 3,3l0 19c0,2 -1,3 -3,3l-53 0c-2,0 -3,-1 -3,-3l0 -19c0,-2 1,-3 3,-3l8 0c0,0 0,0 0,-1l0 -9c0,-1 1,-1 1,-1z"/>
   <ellipse class="fil7" cx="177" cy="88" rx="13" ry="6"/>
   <path class="fil7" d="M213 342l34 0c1,0 1,1 1,1l0 9c0,0 0,0 0,1l8 0c2,0 3,1 3,3l0 19c0,2 -1,3 -3,3l-53 0c-2,0 -3,-1 -3,-3l0 -19c0,-2 1,-3 3,-3l8 0c0,0 0,0 0,-1l0 -9c0,-1 1,-1 1,-1z"/>
   <polygon class="fil8" points="129,224 225,224 230,230 232,234 234,237 189,237 189,249 165,249 165,237 119,237 121,234 123,230 124,229 125,227 126,227 126,226 "/>
  </g>
 </g>
</svg>
