<?xml version="1.0" encoding="UTF-8"?>
<!DOCTYPE svg PUBLIC "-//W3C//DTD SVG 1.1//EN" "http://www.w3.org/Graphics/SVG/1.1/DTD/svg11.dtd">
<!-- Creator: CorelDRAW X6 -->
<svg xmlns="http://www.w3.org/2000/svg" xml:space="preserve" width="10.936mm" height="11.2932mm" version="1.1" style="shape-rendering:geometricPrecision; text-rendering:geometricPrecision; image-rendering:optimizeQuality; fill-rule:evenodd; clip-rule:evenodd"
viewBox="0 0 400 413"
 xmlns:xlink="http://www.w3.org/1999/xlink">
 <defs>
  <style type="text/css">
   <![CDATA[
    .str0 {stroke:black;stroke-width:9.15036;stroke-linecap:round}
    .fil0 {fill:none}
    .fil8 {fill:black}
    .fil4 {fill:#00B387}
    .fil9 {fill:#00B3FF}
    .fil6 {fill:#00DAB3}
    .fil10 {fill:#545400}
    .fil5 {fill:#B07F46}
    .fil7 {fill:#B38754}
    .fil3 {fill:red}
    .fil1 {fill:#FFDAB3}
    .fil2 {fill:white}
   ]]>
  </style>
   <clipPath id="id0">
    <path d="M161 134c13,1 24,-17 32,-4 2,3 4,32 6,36 4,10 7,22 7,35 0,5 0,45 0,50 -5,29 -24,15 -45,16 -27,2 -48,-27 -45,-66 2,-20 9,-37 13,-50 1,-2 2,-8 2,-9 5,-12 18,-9 30,-8z"/>
   </clipPath>
   <clipPath id="id1">
    <path d="M148 22c45,0 81,27 81,61 0,34 -36,61 -81,61 -45,0 -81,-27 -81,-61 0,-34 36,-61 81,-61z"/>
   </clipPath>
 </defs>
 <g id="Слой_x0020_1">
  <metadata id="CorelCorpID_0Corel-Layer"/>
  <rect class="fil0" width="400" height="413"/>
  <path class="fil1" d="M150 129c-4,1 -8,5 -19,9 -11,5 -29,10 -45,12 -16,3 -30,4 -42,4 -12,0 -22,0 -27,-1 -5,-1 -5,-3 -5,-5 -1,-2 -3,-4 -5,-5 -2,-2 -4,-2 -6,1 -1,2 -1,6 -1,12 0,5 0,12 1,16 1,5 2,7 16,7 14,1 40,1 60,0 21,-1 37,-3 50,-6 14,-4 26,-9 33,-14 7,-5 9,-10 8,-14 0,-4 -4,-8 -7,-11 -4,-3 -8,-6 -11,-5z"/>
  <path class="fil2" d="M161 134c13,1 24,-17 32,-4 2,3 4,32 6,36 4,10 7,22 7,35 0,5 0,45 0,50 -5,29 -24,15 -45,16 -27,2 -48,-27 -45,-66 2,-20 9,-37 13,-50 1,-2 2,-8 2,-9 5,-12 18,-9 30,-8z"/>
  <g style="clip-path:url(#id0)">
   <g id="_773887200">
    <rect class="fil3" x="2" y="153" width="276.685" height="26.1481"/>
    <rect class="fil3" x="69" y="204" width="166.2" height="27.7146"/>
   </g>
  </g>
  <path class="fil0" d="M161 134c13,1 24,-17 32,-4 2,3 4,32 6,36 4,10 7,22 7,35 0,5 0,45 0,50 -5,29 -24,15 -45,16 -27,2 -48,-27 -45,-66 2,-20 9,-37 13,-50 1,-2 2,-8 2,-9 5,-12 18,-9 30,-8z"/>
  <g id="_773887488">
   <path class="fil4" d="M156 254c8,0 27,-6 33,3 2,4 -5,11 -5,18 -1,14 0,38 0,51 0,21 0,43 -7,52 -5,5 -13,2 -20,2 -5,0 -13,1 -17,-3 -10,-9 -14,-34 -14,-58 0,-17 -5,-55 0,-66 6,-12 21,1 30,1z"/>
   <path class="fil5" d="M139 376l38 0c1,0 1,0 1,1l0 10c0,0 0,0 0,0l0 0c2,0 3,2 3,4l0 19c0,2 -1,3 -3,3l-57 0c-2,0 -4,-1 -4,-3l0 -19c0,-2 2,-4 4,-4l17 0c0,0 0,0 0,0l0 -10c0,-1 0,-1 1,-1z"/>
   <path class="fil6" d="M175 254c8,0 27,-6 32,3 3,4 -5,11 -5,18 0,14 1,38 1,51 0,21 -1,43 -8,52 -4,5 -13,2 -19,2 -5,0 -13,1 -17,-3 -11,-9 -14,-34 -14,-58 0,-17 -6,-55 0,-66 5,-12 21,1 30,1z"/>
   <path class="fil7" d="M158 376l38 0c0,0 1,0 1,1l0 10c0,0 0,0 0,0l0 0c2,0 3,2 3,4l0 19c0,2 -1,3 -3,3l-58 0c-1,0 -3,-1 -3,-3l0 -19c0,-2 2,-4 3,-4l18 0c0,0 0,0 0,0l0 -10c0,-1 0,-1 1,-1z"/>
  </g>
  <path class="fil1" d="M148 22c45,0 81,27 81,61 0,34 -36,61 -81,61 -45,0 -81,-27 -81,-61 0,-34 36,-61 81,-61z"/>
  <g style="clip-path:url(#id1)">
   <g id="_773889440">
    <path id="1" class="fil0 str0" d="M57 112c12,9 24,17 35,17 11,0 23,-8 34,-17"/>
   </g>
  </g>
  <path class="fil0" d="M148 22c45,0 81,27 81,61 0,34 -36,61 -81,61 -45,0 -81,-27 -81,-61 0,-34 36,-61 81,-61z"/>
  <ellipse class="fil7" transform="matrix(0.258819 0.965926 -0.965926 0.258819 66.9257 95.7018)" rx="14" ry="7"/>
  <circle class="fil8" cx="123" cy="63" r="13"/>
  <circle class="fil9" cx="119" cy="68" r="7"/>
  <path class="fil1" d="M127 36c-2,-7 -2,-22 -1,-30 2,-7 5,-7 11,-4 6,3 15,10 20,15 5,5 6,8 7,10 1,2 1,4 -1,5 -2,2 -6,4 -11,6 -5,2 -11,3 -15,4 -5,1 -8,1 -10,-6z"/>
  <polygon class="fil10" points="124,243 207,243 207,257 145,257 145,270 124,270 124,257 124,257 "/>
  <path class="fil1" d="M150 161c-4,1 -8,5 -19,9 -11,5 -29,9 -45,12 -16,3 -30,4 -42,4 -12,0 -22,0 -27,-1 -5,-1 -5,-3 -5,-5 -1,-2 -3,-4 -5,-6 -2,-1 -4,-1 -6,1 -1,3 -1,7 -1,13 0,5 0,12 1,16 1,5 2,6 16,7 14,1 40,1 60,0 21,-1 37,-3 50,-6 14,-4 26,-10 33,-14 7,-5 9,-10 8,-14 0,-4 -4,-8 -7,-11 -4,-4 -8,-6 -11,-5z"/>
 </g>
</svg>
