<?xml version="1.0" encoding="UTF-8" standalone="no"?>
<svg
   xmlns:dc="http://purl.org/dc/elements/1.1/"
   xmlns:cc="http://creativecommons.org/ns#"
   xmlns:rdf="http://www.w3.org/1999/02/22-rdf-syntax-ns#"
   xmlns:svg="http://www.w3.org/2000/svg"
   xmlns="http://www.w3.org/2000/svg"
   xmlns:sodipodi="http://sodipodi.sourceforge.net/DTD/sodipodi-0.dtd"
   xmlns:inkscape="http://www.inkscape.org/namespaces/inkscape"
   inkscape:version="1.0beta2 (2b71d25, 2019-12-03)"
   sodipodi:docname="avatar-push-left2.svg"
   id="svg66"
   viewBox="0 0 400 413"
   style="shape-rendering:geometricPrecision; text-rendering:geometricPrecision; image-rendering:optimizeQuality; fill-rule:evenodd; clip-rule:evenodd"
   version="1.1"
   height="11.2932mm"
   width="10.936mm"
   xml:space="preserve"><metadata
   id="metadata70"><rdf:RDF><cc:Work
       rdf:about=""><dc:format>image/svg+xml</dc:format><dc:type
         rdf:resource="http://purl.org/dc/dcmitype/StillImage" /></cc:Work></rdf:RDF></metadata><sodipodi:namedview
   inkscape:current-layer="svg66"
   inkscape:window-maximized="0"
   inkscape:window-y="23"
   inkscape:window-x="0"
   inkscape:cy="21.341479"
   inkscape:cx="20.666456"
   inkscape:zoom="19.258271"
   showgrid="false"
   id="namedview68"
   inkscape:window-height="987"
   inkscape:window-width="1920"
   inkscape:pageshadow="2"
   inkscape:pageopacity="0"
   guidetolerance="10"
   gridtolerance="10"
   objecttolerance="10"
   borderopacity="1"
   inkscape:document-rotation="0"
   bordercolor="#666666"
   pagecolor="#ffffff" />
 <defs
   id="defs18">
  <style
   id="style10"
   type="text/css">
   <![CDATA[
    .str0 {stroke:black;stroke-width:9.15036;stroke-linecap:round}
    .fil0 {fill:none}
    .fil8 {fill:black}
    .fil4 {fill:#00B387}
    .fil9 {fill:#00B3FF}
    .fil6 {fill:#00DAB3}
    .fil10 {fill:#545400}
    .fil5 {fill:#B07F46}
    .fil7 {fill:#B38754}
    .fil3 {fill:red}
    .fil1 {fill:#FFDAB3}
    .fil2 {fill:white}
   ]]>
  </style>
   <clipPath
   id="id0">
    <path
   id="path12"
   d="M161 134c13,1 24,-17 32,-4 2,3 4,32 6,36 4,10 7,22 7,35 0,5 0,45 0,50 -5,29 -24,15 -45,16 -27,2 -48,-27 -45,-66 2,-20 9,-37 13,-50 1,-2 2,-8 2,-9 5,-12 18,-9 30,-8z" />
   </clipPath>
   <clipPath
   id="id1">
    <path
   id="path15"
   d="M148 22c45,0 81,27 81,61 0,34 -36,61 -81,61 -45,0 -81,-27 -81,-61 0,-34 36,-61 81,-61z" />
   </clipPath>
 </defs>
 <g
   transform="matrix(-1,0,0,1,400,0)"
   id="Слой_x0020_1">
  <metadata
   id="CorelCorpID_0Corel-Layer" />
  <rect
   y="0"
   x="0"
   id="rect21"
   height="413"
   width="400"
   class="fil0" />
  <path
   inkscape:connector-curvature="0"
   id="path23"
   d="m 150,129 c -4,1 -8,5 -19,9 -11,5 -29,10 -45,12 -16,3 -30,4 -42,4 -12,0 -22,0 -27,-1 -5,-1 -5,-3 -5,-5 -1,-2 -3,-4 -5,-5 -2,-2 -4,-2 -6,1 -1,2 -1,6 -1,12 0,5 0,12 1,16 1,5 2,7 16,7 14,1 40,1 60,0 21,-1 37,-3 50,-6 14,-4 26,-9 33,-14 7,-5 9,-10 8,-14 0,-4 -4,-8 -7,-11 -4,-3 -8,-6 -11,-5 z"
   class="fil1" />
  <path
   inkscape:connector-curvature="0"
   id="path25"
   d="m 161,134 c 13,1 24,-17 32,-4 2,3 4,32 6,36 4,10 7,22 7,35 0,5 0,45 0,50 -5,29 -24,15 -45,16 -27,2 -48,-27 -45,-66 2,-20 9,-37 13,-50 1,-2 2,-8 2,-9 5,-12 18,-9 30,-8 z"
   class="fil2" />
  <g
   id="g32"
   clip-path="url(#id0)">
   <g
   id="_773887200">
    <rect
   id="rect27"
   height="26.1481"
   width="276.685"
   y="153"
   x="2"
   class="fil3" />
    <rect
   id="rect29"
   height="27.7146"
   width="166.2"
   y="204"
   x="69"
   class="fil3" />
   </g>
  </g>
  <path
   inkscape:connector-curvature="0"
   id="path34"
   d="m 161,134 c 13,1 24,-17 32,-4 2,3 4,32 6,36 4,10 7,22 7,35 0,5 0,45 0,50 -5,29 -24,15 -45,16 -27,2 -48,-27 -45,-66 2,-20 9,-37 13,-50 1,-2 2,-8 2,-9 5,-12 18,-9 30,-8 z"
   class="fil0" />
  <g
   id="_773887488">
   <path
   inkscape:connector-curvature="0"
   id="path36"
   d="m 156,254 c 8,0 27,-6 33,3 2,4 -5,11 -5,18 -1,14 0,38 0,51 0,21 0,43 -7,52 -5,5 -13,2 -20,2 -5,0 -13,1 -17,-3 -10,-9 -14,-34 -14,-58 0,-17 -5,-55 0,-66 6,-12 21,1 30,1 z"
   class="fil4" />
   <path
   inkscape:connector-curvature="0"
   id="path38"
   d="m 139,376 h 38 c 1,0 1,0 1,1 v 10 c 0,0 0,0 0,0 v 0 c 2,0 3,2 3,4 v 19 c 0,2 -1,3 -3,3 h -57 c -2,0 -4,-1 -4,-3 v -19 c 0,-2 2,-4 4,-4 h 17 c 0,0 0,0 0,0 v -10 c 0,-1 0,-1 1,-1 z"
   class="fil5" />
   <path
   inkscape:connector-curvature="0"
   id="path40"
   d="m 175,254 c 8,0 27,-6 32,3 3,4 -5,11 -5,18 0,14 1,38 1,51 0,21 -1,43 -8,52 -4,5 -13,2 -19,2 -5,0 -13,1 -17,-3 -11,-9 -14,-34 -14,-58 0,-17 -6,-55 0,-66 5,-12 21,1 30,1 z"
   class="fil6" />
   <path
   inkscape:connector-curvature="0"
   id="path42"
   d="m 158,376 h 38 c 0,0 1,0 1,1 v 10 c 0,0 0,0 0,0 v 0 c 2,0 3,2 3,4 v 19 c 0,2 -1,3 -3,3 h -58 c -1,0 -3,-1 -3,-3 v -19 c 0,-2 2,-4 3,-4 h 18 c 0,0 0,0 0,0 v -10 c 0,-1 0,-1 1,-1 z"
   class="fil7" />
  </g>
  <path
   inkscape:connector-curvature="0"
   id="path45"
   d="m 148,22 c 45,0 81,27 81,61 0,34 -36,61 -81,61 -45,0 -81,-27 -81,-61 0,-34 36,-61 81,-61 z"
   class="fil1" />
  <g
   id="g49"
   clip-path="url(#id1)">
   <g
   id="_773889440">
    <path
   inkscape:connector-curvature="0"
   d="m 57,112 c 12,9 24,17 35,17 11,0 23,-8 34,-17"
   class="fil0 str0"
   id="1" />
   </g>
  </g>
  <path
   inkscape:connector-curvature="0"
   id="path51"
   d="m 148,22 c 45,0 81,27 81,61 0,34 -36,61 -81,61 -45,0 -81,-27 -81,-61 0,-34 36,-61 81,-61 z"
   class="fil0" />
  <ellipse
   cy="0"
   cx="0"
   id="ellipse53"
   ry="7"
   rx="14"
   transform="rotate(75.000005,-28.897658,91.460521)"
   class="fil7" />
  <circle
   id="circle55"
   r="13"
   cy="63"
   cx="123"
   class="fil8" />
  <circle
   id="circle57"
   r="7"
   cy="68"
   cx="119"
   class="fil9" />
  <path
   inkscape:connector-curvature="0"
   id="path59"
   d="m 127,36 c -2,-7 -2,-22 -1,-30 2,-7 5,-7 11,-4 6,3 15,10 20,15 5,5 6,8 7,10 1,2 1,4 -1,5 -2,2 -6,4 -11,6 -5,2 -11,3 -15,4 -5,1 -8,1 -10,-6 z"
   class="fil1" />
  <polygon
   id="polygon61"
   points="207,243 207,257 145,257 145,270 124,270 124,257 124,257 124,243 "
   class="fil10" />
  <path
   inkscape:connector-curvature="0"
   id="path63"
   d="m 150,161 c -4,1 -8,5 -19,9 -11,5 -29,9 -45,12 -16,3 -30,4 -42,4 -12,0 -22,0 -27,-1 -5,-1 -5,-3 -5,-5 -1,-2 -3,-4 -5,-6 -2,-1 -4,-1 -6,1 -1,3 -1,7 -1,13 0,5 0,12 1,16 1,5 2,6 16,7 14,1 40,1 60,0 21,-1 37,-3 50,-6 14,-4 26,-10 33,-14 7,-5 9,-10 8,-14 0,-4 -4,-8 -7,-11 -4,-4 -8,-6 -11,-5 z"
   class="fil1" />
 </g>
</svg>
