<?xml version="1.0" encoding="UTF-8" standalone="no"?>
<svg
   xmlns:dc="http://purl.org/dc/elements/1.1/"
   xmlns:cc="http://creativecommons.org/ns#"
   xmlns:rdf="http://www.w3.org/1999/02/22-rdf-syntax-ns#"
   xmlns:svg="http://www.w3.org/2000/svg"
   xmlns="http://www.w3.org/2000/svg"
   xmlns:sodipodi="http://sodipodi.sourceforge.net/DTD/sodipodi-0.dtd"
   xmlns:inkscape="http://www.inkscape.org/namespaces/inkscape"
   inkscape:version="1.0beta2 (2b71d25, 2019-12-03)"
   sodipodi:docname="avatar-push-left2.svg"
   id="svg68"
   viewBox="0 0 6435 6646"
   style="shape-rendering:geometricPrecision; text-rendering:geometricPrecision; image-rendering:optimizeQuality; fill-rule:evenodd; clip-rule:evenodd"
   version="1.1"
   height="11.2932mm"
   width="10.936mm"
   xml:space="preserve"><metadata
   id="metadata72"><rdf:RDF><cc:Work
       rdf:about=""><dc:format>image/svg+xml</dc:format><dc:type
         rdf:resource="http://purl.org/dc/dcmitype/StillImage" /></cc:Work></rdf:RDF></metadata><sodipodi:namedview
   inkscape:current-layer="svg68"
   inkscape:window-maximized="1"
   inkscape:window-y="23"
   inkscape:window-x="0"
   inkscape:cy="23.055029"
   inkscape:cx="17.291283"
   inkscape:zoom="19.258271"
   showgrid="false"
   id="namedview70"
   inkscape:window-height="988"
   inkscape:window-width="1920"
   inkscape:pageshadow="2"
   inkscape:pageopacity="0"
   guidetolerance="10"
   gridtolerance="10"
   objecttolerance="10"
   borderopacity="1"
   inkscape:document-rotation="0"
   bordercolor="#666666"
   pagecolor="#ffffff" />
 <defs
   id="defs18">
  <style
   id="style10"
   type="text/css">
   <![CDATA[
    .str0 {stroke:black;stroke-width:147.116;stroke-linecap:round}
    .fil0 {fill:none}
    .fil6 {fill:black}
    .fil2 {fill:#00B387}
    .fil7 {fill:#00B3FF}
    .fil8 {fill:#00DAB3}
    .fil9 {fill:#545400}
    .fil5 {fill:#B38754}
    .fil4 {fill:red}
    .fil1 {fill:#FFDAB3}
    .fil3 {fill:white}
   ]]>
  </style>
    <clipPath
   id="id0">
     <path
   id="path12"
   d="M2587 2154c204,17 387,-276 518,-71 35,56 69,522 96,588 66,162 104,352 104,555 0,93 15,724 0,810 -80,462 -384,242 -718,262 -438,27 -775,-444 -718,-1073 29,-323 145,-583 208,-803 7,-23 22,-123 31,-143 85,-191 292,-142 479,-127z" />
    </clipPath>
    <clipPath
   id="id1">
     <path
   id="path15"
   d="M2383 356c722,0 1307,439 1307,980 0,541 -585,980 -1307,980 -722,0 -1307,-439 -1307,-980 0,-541 585,-980 1307,-980z" />
    </clipPath>
 </defs>
 <g
   transform="matrix(-1,0,0,1,6435,0)"
   id="Слой_x0020_1">
  <metadata
   id="CorelCorpID_0Corel-Layer" />
  <g
   id="_939452624">
   <rect
   x="0"
   id="rect21"
   height="6643"
   width="6435"
   y="3"
   class="fil0" />
   <path
   inkscape:connector-curvature="0"
   id="path23"
   d="m 2406,2077 c -61,14 -124,76 -301,147 -177,71 -469,150 -724,194 -255,45 -475,55 -667,60 -193,5 -359,5 -439,-11 -80,-16 -75,-49 -86,-84 -11,-35 -38,-73 -72,-92 -34,-19 -75,-19 -95,16 -20,35 -20,105 -20,195 0,90 0,200 13,269 13,69 38,97 259,111 221,14 637,14 971,-1 334,-15 584,-46 805,-105 221,-59 411,-148 522,-227 111,-79 144,-149 134,-217 -10,-68 -63,-134 -120,-185 -56,-50 -116,-85 -178,-71 z"
   class="fil1" />
   <path
   inkscape:connector-curvature="0"
   id="path25"
   d="m 2341,5432 c -184,319 -392,537 -547,641 -111,74 -169,95 -289,26 -116,-67 -281,-158 -288,-321 -11,-237 193,-588 381,-912 316,-547 765,-915 1052,-749 172,99 490,623 370,930 -47,120 -458,-21 -526,109 -48,92 -100,185 -153,276 z"
   class="fil2" />
   <path
   inkscape:connector-curvature="0"
   id="path27"
   d="m 2587,2154 c 204,17 387,-276 518,-71 35,56 69,522 96,588 66,162 104,352 104,555 0,93 15,724 0,810 -80,462 -384,242 -718,262 -438,27 -775,-444 -718,-1073 29,-323 145,-583 208,-803 7,-23 22,-123 31,-143 85,-191 292,-142 479,-127 z"
   class="fil3" />
   <g
   id="g35"
   clip-path="url(#id0)">
    <g
   id="g33">
     <rect
   id="rect29"
   height="420"
   width="4448"
   y="2465"
   x="36"
   class="fil4" />
     <rect
   id="rect31"
   height="446"
   width="2672"
   y="3273"
   x="1108"
   class="fil4" />
    </g>
   </g>
   <path
   inkscape:connector-curvature="0"
   id="path37"
   d="m 2587,2154 c 204,17 387,-276 518,-71 35,56 69,522 96,588 66,162 104,352 104,555 0,93 15,724 0,810 -80,462 -384,242 -718,262 -438,27 -775,-444 -718,-1073 29,-323 145,-583 208,-803 7,-23 22,-123 31,-143 85,-191 292,-142 479,-127 z"
   class="fil0" />
   <path
   inkscape:connector-curvature="0"
   id="path39"
   d="m 2383,356 c 722,0 1307,439 1307,980 0,541 -585,980 -1307,980 -722,0 -1307,-439 -1307,-980 0,-541 585,-980 1307,-980 z"
   class="fil1" />
   <g
   id="g44"
   clip-path="url(#id1)">
    <g
   id="g42">
     <path
   inkscape:connector-curvature="0"
   d="m 924,1806 c 185,132 371,265 555,265 184,0 365,-132 547,-265"
   class="fil0 str0"
   id="1" />
    </g>
   </g>
   <path
   inkscape:connector-curvature="0"
   id="path46"
   d="m 2383,356 c 722,0 1307,439 1307,980 0,541 -585,980 -1307,980 -722,0 -1307,-439 -1307,-980 0,-541 585,-980 1307,-980 z"
   class="fil0" />
   <ellipse
   cy="0"
   cx="0"
   id="ellipse48"
   ry="112"
   rx="220"
   transform="rotate(75.000005,-464.60388,1470.46)"
   class="fil5" />
   <circle
   id="circle50"
   r="214"
   cy="1016"
   cx="1986"
   class="fil6" />
   <circle
   id="circle52"
   r="107"
   cy="1090"
   cx="1910"
   class="fil7" />
   <path
   inkscape:connector-curvature="0"
   id="path54"
   d="m 3502,4792 c 261,261 418,518 477,695 43,126 48,188 -49,286 -95,95 -225,230 -384,195 -232,-51 -517,-339 -783,-604 -447,-447 -686,-976 -452,-1210 140,-140 729,-312 994,-117 104,77 -138,437 -31,536 76,70 153,144 227,219 z"
   class="fil8" />
   <path
   inkscape:connector-curvature="0"
   id="path56"
   d="m 3545,5968 426,-427 c 10,-10 25,-10 35,0 l 112,112 c 2,2 4,5 5,8 l 1,-1 c 19,-19 51,-19 70,0 l 223,223 c 19,19 19,51 0,70 l -656,656 c -19,19 -51,19 -70,0 l -223,-223 c -19,-19 -19,-51 0,-70 l 196,-196 c -3,-1 -6,-3 -8,-5 l -112,-112 c -10,-10 -10,-26 0,-35 z"
   class="fil5" />
   <path
   inkscape:connector-curvature="0"
   id="path58"
   d="m 1218,5778 522,302 c 12,7 16,22 9,34 l -79,137 c -2,3 -4,5 -6,7 l 2,1 c 24,14 32,44 18,68 l -158,274 c -14,24 -44,32 -68,18 L 654,6155 c -24,-14 -32,-44 -18,-68 l 158,-274 c 14,-24 44,-32 68,-18 l 240,139 c 0,-3 1,-6 3,-9 l 79,-137 c 7,-12 22,-16 34,-9 z"
   class="fil5" />
   <path
   inkscape:connector-curvature="0"
   id="path60"
   d="m 2048,581 c -31,-116 -42,-358 -18,-479 24,-121 84,-121 180,-69 97,52 231,157 310,235 80,79 106,132 118,168 13,36 13,56 -18,83 -31,27 -92,62 -171,90 -79,28 -176,49 -249,64 -73,15 -122,24 -153,-92 z"
   class="fil1" />
   <polygon
   id="polygon62"
   points="3332,3913 3332,4129 2326,4129 2326,4347 1987,4347 1987,4129 1987,4129 1987,3913 "
   class="fil9" />
   <path
   inkscape:connector-curvature="0"
   id="path64"
   d="m 2406,2589 c -61,14 -124,76 -301,147 -177,71 -469,150 -724,194 -255,45 -475,55 -667,60 -193,5 -359,5 -439,-11 -80,-16 -75,-49 -86,-84 -11,-35 -38,-73 -72,-92 -34,-19 -75,-19 -95,16 -20,35 -20,105 -20,195 0,90 0,200 13,269 13,69 38,97 259,111 221,14 637,14 971,-1 334,-15 584,-46 805,-105 221,-59 411,-148 522,-227 111,-79 144,-149 134,-217 -10,-68 -63,-134 -120,-185 -56,-50 -116,-85 -178,-71 z"
   class="fil1" />
  </g>
 </g>
</svg>
