<?xml version="1.0" encoding="UTF-8"?>
<!DOCTYPE svg PUBLIC "-//W3C//DTD SVG 1.1//EN" "http://www.w3.org/Graphics/SVG/1.1/DTD/svg11.dtd">
<!-- Creator: CorelDRAW X6 -->
<svg xmlns="http://www.w3.org/2000/svg" xml:space="preserve" width="10.936mm" height="11.2932mm" version="1.1" style="shape-rendering:geometricPrecision; text-rendering:geometricPrecision; image-rendering:optimizeQuality; fill-rule:evenodd; clip-rule:evenodd"
viewBox="0 0 367 379"
 xmlns:xlink="http://www.w3.org/1999/xlink">
 <defs>
  <style type="text/css">
   <![CDATA[
    .str0 {stroke:black;stroke-width:8.3865;stroke-linecap:round}
    .fil0 {fill:none}
    .fil5 {fill:black}
    .fil7 {fill:#00B387}
    .fil6 {fill:#00B3FF}
    .fil8 {fill:#00DAB3}
    .fil9 {fill:#545400}
    .fil4 {fill:#B38754}
    .fil3 {fill:red}
    .fil1 {fill:#FFDAB3}
    .fil2 {fill:white}
   ]]>
  </style>
     <clipPath id="id0">
      <path d="M187 123c12,1 22,-16 30,-4 2,3 4,30 5,34 4,9 6,20 6,32 0,5 1,41 0,46 -5,26 -22,14 -41,15 -25,2 -44,-25 -41,-61 2,-18 8,-33 12,-46 0,-1 1,-7 2,-8 5,-11 17,-8 27,-7z"/>
     </clipPath>
     <clipPath id="id1">
      <path d="M187 20c41,0 74,25 74,56 0,31 -33,56 -74,56 -41,0 -74,-25 -74,-56 0,-31 33,-56 74,-56z"/>
     </clipPath>
 </defs>
 <g id="Слой_x0020_1">
  <metadata id="CorelCorpID_0Corel-Layer"/>
  <g id="_881318848">
   <rect class="fil0" width="367" height="379"/>
   <g>
    <path class="fil1" d="M174 151c0,7 -1,20 -3,28 -2,8 -6,13 -18,21 -12,9 -33,22 -43,30 -10,8 -10,9 -6,13 4,4 13,9 18,9 5,0 6,-5 14,-11 8,-6 24,-12 36,-18 12,-7 19,-13 23,-26 4,-12 4,-30 4,-40 0,-10 0,-11 -2,-12 -1,-1 -4,-3 -7,-4 -3,-1 -7,-1 -9,-1 -3,0 -5,1 -6,1 -1,1 -2,2 -2,9z"/>
    <path class="fil2" d="M187 123c12,1 22,-16 30,-4 2,3 4,30 5,34 4,9 6,20 6,32 0,5 1,41 0,46 -5,26 -22,14 -41,15 -25,2 -44,-25 -41,-61 2,-18 8,-33 12,-46 0,-1 1,-7 2,-8 5,-11 17,-8 27,-7z"/>
    <g style="clip-path:url(#id0)">
     <g>
      <rect class="fil3" x="41" y="141" width="253.588" height="23.9653"/>
      <rect class="fil3" x="102" y="187" width="152.326" height="25.401"/>
     </g>
    </g>
    <path class="fil0" d="M187 123c12,1 22,-16 30,-4 2,3 4,30 5,34 4,9 6,20 6,32 0,5 1,41 0,46 -5,26 -22,14 -41,15 -25,2 -44,-25 -41,-61 2,-18 8,-33 12,-46 0,-1 1,-7 2,-8 5,-11 17,-8 27,-7z"/>
    <path class="fil1" d="M187 20c41,0 74,25 74,56 0,31 -33,56 -74,56 -41,0 -74,-25 -74,-56 0,-31 33,-56 74,-56z"/>
    <g style="clip-path:url(#id1)">
     <g>
      <path id="1" class="fil0 str0" d="M103 103c11,8 21,15 32,15 10,0 21,-8 31,-15"/>
     </g>
    </g>
    <path class="fil0" d="M187 20c41,0 74,25 74,56 0,31 -33,56 -74,56 -41,0 -74,-25 -74,-56 0,-31 33,-56 74,-56z"/>
    <ellipse class="fil4" transform="matrix(0.258819 0.965926 -0.965926 0.258819 112.04 87.7128)" rx="13" ry="6"/>
    <circle class="fil5" cx="164" cy="58" r="12"/>
    <circle class="fil6" cx="160" cy="62" r="6"/>
    <path class="fil7" d="M239 273c15,15 24,30 27,40 2,7 3,11 -3,16 -5,5 -13,13 -22,11 -13,-3 -29,-19 -45,-34 -25,-25 -39,-56 -26,-69 8,-8 42,-18 57,-7 6,4 -8,25 -2,31 4,4 9,8 13,12z"/>
    <path class="fil8" d="M173 310c-11,18 -22,31 -31,37 -6,4 -10,5 -16,2 -7,-4 -16,-9 -16,-18 -1,-14 11,-33 22,-52 18,-31 39,-45 57,-49 6,-1 20,-4 30,-4 10,0 16,4 6,31 -2,7 -39,31 -43,38 -3,5 -6,11 -9,16z"/>
    <path class="fil4" d="M241 340l24 -24c1,-1 1,-1 2,0l6 6c0,0 0,0 0,0l0 0c1,-1 3,-1 4,0l13 13c1,1 1,3 0,4l-37 37c-1,1 -3,1 -4,0l-13 -13c-1,-1 -1,-3 0,-4l11 -11c0,0 0,0 0,0l-6 -6c-1,-1 -1,-1 0,-2z"/>
    <path class="fil4" d="M109 329l30 17c1,0 1,1 1,2l-5 8c0,0 0,0 0,0l0 0c1,1 2,3 1,4l-9 16c-1,1 -3,2 -4,1l-46 -26c-1,-1 -2,-3 -1,-4l9 -16c1,-1 3,-2 4,-1l14 8c0,0 0,0 0,-1l5 -8c0,-1 1,-1 2,-1z"/>
    <path class="fil1" d="M167 33c-2,-7 -2,-20 -1,-27 1,-7 5,-7 10,-4 6,3 13,9 18,13 5,4 6,8 7,10 1,2 1,3 -1,5 -2,2 -5,4 -10,5 -5,2 -10,3 -14,4 -4,1 -7,1 -9,-5z"/>
    <polygon class="fil9" points="152,223 229,223 229,235 172,235 172,248 152,248 152,235 152,235 "/>
    <path class="fil1" d="M178 161c7,2 19,6 26,10 8,4 11,9 16,23 5,14 13,37 17,49 5,12 6,12 11,9 5,-3 12,-11 14,-15 1,-5 -3,-7 -7,-17 -3,-10 -5,-26 -9,-39 -3,-13 -8,-22 -19,-29 -11,-7 -28,-12 -37,-14 -9,-2 -11,-3 -12,-2 -2,1 -4,3 -5,5 -2,3 -3,6 -3,9 -1,3 -1,5 0,6 0,1 1,2 8,5z"/>
   </g>
  </g>
 </g>
</svg>
