<?xml version="1.0" encoding="UTF-8" standalone="no"?>
<svg
   xmlns:dc="http://purl.org/dc/elements/1.1/"
   xmlns:cc="http://creativecommons.org/ns#"
   xmlns:rdf="http://www.w3.org/1999/02/22-rdf-syntax-ns#"
   xmlns:svg="http://www.w3.org/2000/svg"
   xmlns="http://www.w3.org/2000/svg"
   xmlns:sodipodi="http://sodipodi.sourceforge.net/DTD/sodipodi-0.dtd"
   xmlns:inkscape="http://www.inkscape.org/namespaces/inkscape"
   xml:space="preserve"
   width="10.936mm"
   height="11.2932mm"
   version="1.1"
   style="shape-rendering:geometricPrecision; text-rendering:geometricPrecision; image-rendering:optimizeQuality; fill-rule:evenodd; clip-rule:evenodd"
   viewBox="0 0 400 413"
   id="svg66"
   sodipodi:docname="avatar-walk-right2.svg"
   inkscape:version="1.0beta2 (2b71d25, 2019-12-03)"><metadata
   id="metadata70"><rdf:RDF><cc:Work
       rdf:about=""><dc:format>image/svg+xml</dc:format><dc:type
         rdf:resource="http://purl.org/dc/dcmitype/StillImage" /><dc:title></dc:title></cc:Work></rdf:RDF></metadata><sodipodi:namedview
   pagecolor="#ffffff"
   bordercolor="#666666"
   inkscape:document-rotation="0"
   borderopacity="1"
   objecttolerance="10"
   gridtolerance="10"
   guidetolerance="10"
   inkscape:pageopacity="0"
   inkscape:pageshadow="2"
   inkscape:window-width="1920"
   inkscape:window-height="987"
   id="namedview68"
   showgrid="false"
   inkscape:zoom="22.121404"
   inkscape:cx="21.382971"
   inkscape:cy="8.1776817"
   inkscape:window-x="0"
   inkscape:window-y="23"
   inkscape:window-maximized="0"
   inkscape:current-layer="svg66" />
 <defs
   id="defs18">
  <style
   type="text/css"
   id="style10">
   <![CDATA[
    .str0 {stroke:black;stroke-width:9.15036;stroke-linecap:round}
    .fil0 {fill:none}
    .fil8 {fill:black}
    .fil4 {fill:#00B387}
    .fil9 {fill:#00B3FF}
    .fil6 {fill:#00DAB3}
    .fil10 {fill:#545400}
    .fil5 {fill:#B07F46}
    .fil7 {fill:#B38754}
    .fil3 {fill:red}
    .fil1 {fill:#FFDAB3}
    .fil2 {fill:white}
   ]]>
  </style>
   <clipPath
   id="id0">
    <path
   d="M161 134c13,1 24,-17 32,-4 2,3 4,32 6,36 4,10 7,22 7,35 0,5 0,45 0,50 -5,29 -24,15 -45,16 -27,2 -48,-27 -45,-66 2,-20 9,-37 13,-50 1,-2 2,-8 2,-9 5,-12 18,-9 30,-8z"
   id="path12" />
   </clipPath>
   <clipPath
   id="id1">
    <path
   d="M148 22c45,0 81,27 81,61 0,34 -36,61 -81,61 -45,0 -81,-27 -81,-61 0,-34 36,-61 81,-61z"
   id="path15" />
   </clipPath>
 
  
  
  
  
  
  
  
  
  
  
  
  
  
  
  
  
 </defs>
 <g
   transform="matrix(-1,0,0,1,398.84349,0)"
   id="g244"><rect
     class="fil0"
     width="400"
     height="413"
     id="rect21"
     x="44.067169"
     y="0.81605875" /><path
     class="fil2"
     d="m 205.06717,134.81606 c 13,1 24,-17 32,-4 2,3 4,32 6,36 4,10 7,22 7,35 0,5 0,45 0,50 -5,29 -24,15 -45,16 -27,2 -48,-27 -45,-66 2,-20 9,-37 13,-50 1,-2 2,-8 2,-9 5,-12 18,-9 30,-8 z"
     id="path25"
     inkscape:connector-curvature="0" /><g
     clip-path="url(#id0)"
     id="g32"
     transform="translate(44.06717,0.81605876)">
   <g
   id="_773887200">
    <rect
   class="fil3"
   x="2"
   y="153"
   width="276.685"
   height="26.1481"
   id="rect27" />
    <rect
   class="fil3"
   x="69"
   y="204"
   width="166.2"
   height="27.7146"
   id="rect29" />
   </g>
  </g><path
     class="fil0"
     d="m 205.06717,134.81606 c 13,1 24,-17 32,-4 2,3 4,32 6,36 4,10 7,22 7,35 0,5 0,45 0,50 -5,29 -24,15 -45,16 -27,2 -48,-27 -45,-66 2,-20 9,-37 13,-50 1,-2 2,-8 2,-9 5,-12 18,-9 30,-8 z"
     id="path34"
     inkscape:connector-curvature="0" /><g
     id="_773887488"
     transform="translate(44.06717,0.81605876)">
   <path
   class="fil4"
   d="m 156,254 c 8,0 27,-6 33,3 2,4 -5,11 -5,18 -1,14 0,38 0,51 0,21 0,43 -7,52 -5,5 -13,2 -20,2 -5,0 -13,1 -17,-3 -10,-9 -14,-34 -14,-58 0,-17 -5,-55 0,-66 6,-12 21,1 30,1 z"
   id="path36"
   inkscape:connector-curvature="0" />
   <path
   class="fil5"
   d="m 139,376 h 38 c 1,0 1,0 1,1 v 10 c 0,0 0,0 0,0 v 0 c 2,0 3,2 3,4 v 19 c 0,2 -1,3 -3,3 h -57 c -2,0 -4,-1 -4,-3 v -19 c 0,-2 2,-4 4,-4 h 17 c 0,0 0,0 0,0 v -10 c 0,-1 0,-1 1,-1 z"
   id="path38"
   inkscape:connector-curvature="0" />
   <path
   class="fil6"
   d="m 175,254 c 8,0 27,-6 32,3 3,4 -5,11 -5,18 0,14 1,38 1,51 0,21 -1,43 -8,52 -4,5 -13,2 -19,2 -5,0 -13,1 -17,-3 -11,-9 -14,-34 -14,-58 0,-17 -6,-55 0,-66 5,-12 21,1 30,1 z"
   id="path40"
   inkscape:connector-curvature="0" />
   <path
   class="fil7"
   d="m 158,376 h 38 c 0,0 1,0 1,1 v 10 c 0,0 0,0 0,0 v 0 c 2,0 3,2 3,4 v 19 c 0,2 -1,3 -3,3 h -58 c -1,0 -3,-1 -3,-3 v -19 c 0,-2 2,-4 3,-4 h 18 c 0,0 0,0 0,0 v -10 c 0,-1 0,-1 1,-1 z"
   id="path42"
   inkscape:connector-curvature="0" />
  </g><g
     id="g218"
     transform="translate(10.839985,-0.3315991)"><path
       inkscape:connector-curvature="0"
       id="path45"
       d="m 192.06717,22.816059 c 45,0 81,27 81,61 0,34.000001 -36,61.000001 -81,61.000001 -45,0 -81,-27 -81,-61.000001 0,-34 36,-61 81,-61 z"
       class="fil1" /><g
       transform="translate(44.06717,0.81605876)"
       id="g49"
       clip-path="url(#id1)">
   <g
   id="_773889440">
    <path
   inkscape:connector-curvature="0"
   d="m 57,112 c 12,9 24,17 35,17 11,0 23,-8 34,-17"
   class="fil0 str0"
   id="1" />
   </g>
  </g><path
       inkscape:connector-curvature="0"
       id="path51"
       d="m 192.06717,22.816059 c 45,0 81,27 81,61 0,34.000001 -36,61.000001 -81,61.000001 -45,0 -81,-27 -81,-61.000001 0,-34 36,-61 81,-61 z"
       class="fil0" /><ellipse
       cy="-82.230202"
       cx="121.95615"
       id="ellipse53"
       ry="7"
       rx="14"
       transform="rotate(75.000005)"
       class="fil7" /><circle
       id="circle55"
       r="13"
       cy="63.816059"
       cx="167.06717"
       class="fil8" /><circle
       id="circle57"
       r="7"
       cy="68.816055"
       cx="163.06717"
       class="fil9" /><path
       inkscape:connector-curvature="0"
       id="path59"
       d="m 171.06717,36.816059 c -2,-7 -2,-22 -1,-30.0000002 2,-7.00000004 5,-7.00000004 11,-4 6,3 15,10.0000002 20,15.0000002 5,5 6,8 7,10 1,2 1,4 -1,5 -2,2 -6,4 -11,6 -5,2 -11,3 -15,4 -5,1 -8,1 -10,-6 z"
       class="fil1" /></g><polygon
     class="fil10"
     points="124,270 124,257 124,243 207,243 207,257 145,257 145,270 "
     id="polygon61"
     transform="translate(44.06717,0.81605876)" /><path
     class="fil1"
     d="m 188.11614,173.64242 c 1,3.98805 5,7.9761 9,18.94325 5,10.96714 9,28.91338 12,44.86559 3,15.95221 4,29.91039 4,41.87455 0,11.96416 0,21.93429 -1,26.91935 -1,4.98507 -3,4.98507 -5,4.98507 -2,0.99701 -4,2.99104 -6,4.98507 -1,1.99402 -1,3.98805 1,5.98207 3,0.99702 7,0.99702 13,0.99702 5,0 12,0 16,-0.99702 5,-0.99701 6,-1.99402 7,-15.95221 1,-13.95818 1,-39.88052 0,-59.82078 -1,-20.93728 -3,-36.88949 -6,-49.85066 -4,-13.95819 -10,-25.92234 -14,-32.90144 -5,-6.97909 -10,-8.97311 -14,-7.9761 -4,0 -8,3.98805 -11,6.97909 -4,3.98805 -6,7.97611 -5,10.96715 z"
     id="path63"
     inkscape:connector-curvature="0"
     style="stroke-width:0.998505" /></g>
</svg>
