<?xml version="1.0" encoding="UTF-8"?>
<!DOCTYPE svg PUBLIC "-//W3C//DTD SVG 1.1//EN" "http://www.w3.org/Graphics/SVG/1.1/DTD/svg11.dtd">
<!-- Creator: CorelDRAW X6 -->
<svg xmlns="http://www.w3.org/2000/svg" xml:space="preserve" width="10.936mm" height="11.2888mm" version="1.1" style="shape-rendering:geometricPrecision; text-rendering:geometricPrecision; image-rendering:optimizeQuality; fill-rule:evenodd; clip-rule:evenodd"
viewBox="0 0 6435 6643"
 xmlns:xlink="http://www.w3.org/1999/xlink">
 <defs>
  <style type="text/css">
   <![CDATA[
    .str0 {stroke:black;stroke-width:147.116;stroke-linecap:round}
    .fil0 {fill:none}
    .fil5 {fill:black}
    .fil6 {fill:#00B3FF}
    .fil1 {fill:#00DAB3}
    .fil8 {fill:#545400}
    .fil7 {fill:#B38754}
    .fil4 {fill:red}
    .fil2 {fill:#FFDAB3}
    .fil3 {fill:white}
   ]]>
  </style>
    <clipPath id="id0">
     <path d="M3219 2212c201,0 402,0 510,4 108,4 123,11 128,52 4,41 -2,117 -1,155 1,38 10,38 68,38 58,0 167,0 271,26 105,26 206,78 329,166 122,89 265,214 338,299 73,86 78,131 31,193 -47,62 -144,142 -218,181 -75,40 -127,40 -187,0 -61,-40 -130,-119 -179,-146 -50,-27 -80,-2 -118,59 -38,61 -83,158 -107,295 -24,137 -23,313 -24,401 -1,88 -3,89 -142,89l-699 0 -699 0c-139,0 -148,-7 -149,-96 -1,-88 6,-257 -17,-394 -24,-137 -69,-234 -107,-295 -38,-61 -68,-86 -118,-59 -50,27 -119,106 -179,146 -61,40 -112,40 -187,0 -75,-40 -172,-119 -218,-181 -46,-62 -42,-108 31,-193 74,-85 216,-211 338,-299 122,-89 224,-140 329,-166 105,-26 213,-26 271,-26 58,0 67,0 68,-38 1,-38 -5,-114 -1,-155 4,-41 19,-49 128,-52 108,-4 309,-4 510,-4z"/>
    </clipPath>
 </defs>
 <g id="Слой_x0020_1">
  <metadata id="CorelCorpID_0Corel-Layer"/>
  <g id="_864679648">
   <rect class="fil0" width="6435" height="6643"/>
   <path class="fil1" d="M4060 3941c165,108 327,612 489,1155 107,359 2,780 -126,980 -88,137 -275,134 -410,134 -138,0 -140,-80 -199,-199 -83,-167 -192,-428 -192,-797 0,-106 2,-212 6,-316 5,-121 -285,-199 -375,-294l-100 0c-90,95 -380,173 -375,294 4,104 6,210 6,316 0,369 -109,630 -192,797 -59,119 -61,199 -199,199 -134,0 -322,3 -410,-134 -128,-200 -233,-621 -126,-980 170,-569 339,-1096 513,-1168l0 -57 1689 0 0 70z"/>
   <path class="fil2" d="M2378 2836c-112,131 -369,349 -495,475 -126,125 -122,158 -69,219 53,61 156,151 268,254 112,103 233,218 311,301 78,83 113,132 91,182 -22,49 -100,98 -162,126 -63,28 -110,34 -177,9 -67,-24 -153,-80 -277,-182 -124,-102 -286,-252 -387,-352 -101,-101 -142,-153 -183,-205 -41,-52 -84,-104 -54,-183 30,-79 133,-185 229,-280 96,-95 184,-180 277,-262 94,-83 192,-163 262,-218 70,-55 111,-83 175,-96 64,-12 150,-8 210,15 60,24 93,67 -19,198z"/>
   <path class="fil2" d="M4073 2836c112,131 369,349 495,475 126,125 122,158 69,219 -53,61 -156,151 -268,254 -112,103 -233,218 -311,301 -78,83 -113,132 -91,182 22,49 100,98 162,126 63,28 110,34 177,9 67,-24 153,-80 277,-182 124,-102 286,-252 387,-352 101,-101 142,-153 183,-205 41,-52 84,-104 54,-183 -30,-79 -133,-185 -229,-280 -96,-95 -184,-180 -277,-262 -94,-83 -192,-163 -262,-218 -70,-55 -111,-83 -175,-96 -64,-12 -150,-8 -210,15 -60,24 -93,67 19,198z"/>
   <path class="fil3" d="M3219 2212c201,0 402,0 510,4 108,4 123,11 128,52 4,41 -2,117 -1,155 1,38 10,38 68,38 58,0 167,0 271,26 105,26 206,78 329,166 122,89 265,214 338,299 73,86 78,131 31,193 -47,62 -144,142 -218,181 -75,40 -127,40 -187,0 -61,-40 -130,-119 -179,-146 -50,-27 -80,-2 -118,59 -38,61 -83,158 -107,295 -24,137 -23,313 -24,401 -1,88 -3,89 -142,89l-699 0 -699 0c-139,0 -148,-7 -149,-96 -1,-88 6,-257 -17,-394 -24,-137 -69,-234 -107,-295 -38,-61 -68,-86 -118,-59 -50,27 -119,106 -179,146 -61,40 -112,40 -187,0 -75,-40 -172,-119 -218,-181 -46,-62 -42,-108 31,-193 74,-85 216,-211 338,-299 122,-89 224,-140 329,-166 105,-26 213,-26 271,-26 58,0 67,0 68,-38 1,-38 -5,-114 -1,-155 4,-41 19,-49 128,-52 108,-4 309,-4 510,-4z"/>
   <g style="clip-path:url(#id0)">
    <g>
     <rect class="fil4" x="972" y="2449" width="4448" height="445"/>
     <rect class="fil4" x="2123" y="3282" width="2179" height="446"/>
    </g>
   </g>
   <path class="fil0" d="M3219 2212c201,0 402,0 510,4 108,4 123,11 128,52 4,41 -2,117 -1,155 1,38 10,38 68,38 58,0 167,0 271,26 105,26 206,78 329,166 122,89 265,214 338,299 73,86 78,131 31,193 -47,62 -144,142 -218,181 -75,40 -127,40 -187,0 -61,-40 -130,-119 -179,-146 -50,-27 -80,-2 -118,59 -38,61 -83,158 -107,295 -24,137 -23,313 -24,401 -1,88 -3,89 -142,89l-699 0 -699 0c-139,0 -148,-7 -149,-96 -1,-88 6,-257 -17,-394 -24,-137 -69,-234 -107,-295 -38,-61 -68,-86 -118,-59 -50,27 -119,106 -179,146 -61,40 -112,40 -187,0 -75,-40 -172,-119 -218,-181 -46,-62 -42,-108 31,-193 74,-85 216,-211 338,-299 122,-89 224,-140 329,-166 105,-26 213,-26 271,-26 58,0 67,0 68,-38 1,-38 -5,-114 -1,-155 4,-41 19,-49 128,-52 108,-4 309,-4 510,-4z"/>
   <ellipse class="fil2" cx="3218" cy="1338" rx="1709" ry="988"/>
   <path class="fil0 str0" d="M2661 1715c185,132 371,265 555,265 184,0 365,-132 547,-265"/>
   <circle class="fil5" cx="4046" cy="1026" r="214"/>
   <circle class="fil6" cx="3970" cy="1100" r="107"/>
   <circle class="fil5" cx="2377" cy="1026" r="214"/>
   <circle class="fil6" cx="2453" cy="1100" r="107"/>
   <ellipse class="fil0" cx="3217" cy="1548" rx="226" ry="112"/>
   <path class="fil2" d="M4421 591c31,-116 42,-358 18,-479 -24,-121 -84,-121 -180,-69 -97,52 -231,157 -310,235 -80,79 -106,132 -118,168 -13,36 -13,56 18,83 31,27 92,62 171,90 79,28 176,49 249,64 73,15 122,24 153,-92z"/>
   <path class="fil7" d="M4292 370c10,-39 14,-120 6,-160 -8,-40 -28,-40 -60,-23 -32,17 -77,52 -104,79 -27,26 -35,44 -40,56 -4,12 -4,19 6,28 10,9 31,21 57,30 26,9 59,16 83,21 24,5 41,8 51,-31z"/>
   <path class="fil2" d="M2004 591c-31,-116 -42,-358 -18,-479 24,-121 84,-121 180,-69 97,52 231,157 310,235 80,79 106,132 118,168 13,36 13,56 -18,83 -31,27 -92,62 -171,90 -79,28 -176,49 -249,64 -73,15 -122,24 -153,-92z"/>
   <path class="fil7" d="M2133 370c-10,-39 -14,-120 -6,-160 8,-40 28,-40 60,-23 32,17 77,52 104,79 27,26 35,44 40,56 4,12 4,19 -6,28 -10,9 -31,21 -57,30 -26,9 -59,16 -83,21 -24,5 -41,8 -51,-31z"/>
   <ellipse class="fil7" cx="3218" cy="1548" rx="220" ry="112"/>
   <path class="fil7" d="M1968 5985l603 0c14,0 25,12 25,26l0 164c0,3 -1,7 -2,10l139 0c27,0 50,23 50,52l0 327c0,28 -22,52 -50,52l-928 0c-27,0 -50,-23 -50,-52l0 -327c0,-28 22,-52 50,-52l139 0c-1,-3 -2,-6 -2,-10l0 -164c0,-14 11,-26 25,-26z"/>
   <path class="fil7" d="M3845 5985l603 0c14,0 25,12 25,26l0 164c0,3 -1,7 -2,10l139 0c27,0 50,23 50,52l0 327c0,28 -22,52 -50,52l-928 0c-27,0 -50,-23 -50,-52l0 -327c0,-28 22,-52 50,-52l139 0c-1,-3 -2,-6 -2,-10l0 -164c0,-14 11,-26 25,-26z"/>
   <polygon class="fil8" points="2363,3925 4060,3925 4132,4008 4008,4140 3421,4140 3421,4358 2994,4358 2994,4140 2444,4140 2295,3983 "/>
  </g>
 </g>
</svg>
