<?xml version="1.0" encoding="UTF-8"?>
<!DOCTYPE svg PUBLIC "-//W3C//DTD SVG 1.1//EN" "http://www.w3.org/Graphics/SVG/1.1/DTD/svg11.dtd">
<!-- Creator: CorelDRAW X6 -->
<svg xmlns="http://www.w3.org/2000/svg" xml:space="preserve" width="10.936mm" height="11.2932mm" version="1.1" style="shape-rendering:geometricPrecision; text-rendering:geometricPrecision; image-rendering:optimizeQuality; fill-rule:evenodd; clip-rule:evenodd"
viewBox="0 0 6435 6646"
 xmlns:xlink="http://www.w3.org/1999/xlink">
 <defs>
  <style type="text/css">
   <![CDATA[
    .str0 {stroke:black;stroke-width:147.116;stroke-linecap:round}
    .fil0 {fill:none}
    .fil6 {fill:black}
    .fil2 {fill:#00B387}
    .fil7 {fill:#00B3FF}
    .fil8 {fill:#00DAB3}
    .fil9 {fill:#545400}
    .fil5 {fill:#B38754}
    .fil4 {fill:red}
    .fil1 {fill:#FFDAB3}
    .fil3 {fill:white}
   ]]>
  </style>
     <clipPath id="id0">
      <path d="M3274 2154c204,17 387,-276 518,-71 35,56 69,522 96,588 66,162 104,352 104,555 0,93 15,724 0,810 -80,462 -384,242 -718,262 -438,27 -775,-444 -718,-1073 29,-323 145,-583 208,-803 7,-23 22,-123 31,-143 85,-191 292,-142 479,-127z"/>
     </clipPath>
     <clipPath id="id1">
      <path d="M3272 356c722,0 1307,439 1307,980 0,541 -585,980 -1307,980 -722,0 -1307,-439 -1307,-980 0,-541 585,-980 1307,-980z"/>
     </clipPath>
 </defs>
 <g id="Слой_x0020_1">
  <metadata id="CorelCorpID_0Corel-Layer"/>
  <g id="_864680288">
   <rect class="fil0" y="3" width="6435" height="6643"/>
   <g>
    <path class="fil1" d="M3130 2818c114,39 328,101 463,173 135,72 190,154 283,400 93,246 225,656 306,864 81,208 111,214 193,154 82,-60 217,-185 243,-268 26,-84 -57,-126 -115,-293 -58,-167 -93,-458 -150,-685 -58,-227 -139,-391 -329,-513 -190,-122 -490,-202 -653,-243 -163,-41 -189,-44 -219,-29 -30,15 -66,48 -94,94 -28,47 -50,107 -61,155 -10,48 -10,83 -2,109 7,26 21,42 135,82z"/>
    <path class="fil2" d="M3028 5432c-184,319 -392,537 -547,641 -111,74 -169,95 -289,26 -116,-67 -281,-158 -288,-321 -11,-237 193,-588 381,-912 316,-547 765,-915 1052,-749 172,99 490,623 370,930 -47,120 -458,-21 -526,109 -48,92 -100,185 -153,276z"/>
    <path class="fil3" d="M3274 2154c204,17 387,-276 518,-71 35,56 69,522 96,588 66,162 104,352 104,555 0,93 15,724 0,810 -80,462 -384,242 -718,262 -438,27 -775,-444 -718,-1073 29,-323 145,-583 208,-803 7,-23 22,-123 31,-143 85,-191 292,-142 479,-127z"/>
    <g style="clip-path:url(#id0)">
     <g>
      <rect class="fil4" x="723" y="2465" width="4448" height="420"/>
      <rect class="fil4" x="1795" y="3273" width="2672" height="446"/>
     </g>
    </g>
    <path class="fil0" d="M3274 2154c204,17 387,-276 518,-71 35,56 69,522 96,588 66,162 104,352 104,555 0,93 15,724 0,810 -80,462 -384,242 -718,262 -438,27 -775,-444 -718,-1073 29,-323 145,-583 208,-803 7,-23 22,-123 31,-143 85,-191 292,-142 479,-127z"/>
    <path class="fil1" d="M3272 356c722,0 1307,439 1307,980 0,541 -585,980 -1307,980 -722,0 -1307,-439 -1307,-980 0,-541 585,-980 1307,-980z"/>
    <g style="clip-path:url(#id1)">
     <g>
      <path id="1" class="fil0 str0" d="M1813 1806c185,132 371,265 555,265 184,0 365,-132 547,-265"/>
     </g>
    </g>
    <path class="fil0" d="M3272 356c722,0 1307,439 1307,980 0,541 -585,980 -1307,980 -722,0 -1307,-439 -1307,-980 0,-541 585,-980 1307,-980z"/>
    <ellipse class="fil5" transform="matrix(0.258819 0.965926 -0.965926 0.258819 1965.41 1538.65)" rx="220" ry="112"/>
    <circle class="fil6" cx="2875" cy="1016" r="214"/>
    <circle class="fil7" cx="2799" cy="1090" r="107"/>
    <path class="fil8" d="M4188 4792c261,261 418,518 477,695 43,126 48,188 -49,286 -95,95 -225,230 -384,195 -232,-51 -517,-339 -783,-604 -447,-447 -686,-976 -452,-1210 140,-140 729,-312 994,-117 104,77 -138,437 -31,536 76,70 153,144 227,219z"/>
    <path class="fil5" d="M4232 5968l426 -427c10,-10 25,-10 35,0l112 112c2,2 4,5 5,8l1 -1c19,-19 51,-19 70,0l223 223c19,19 19,51 0,70l-656 656c-19,19 -51,19 -70,0l-223 -223c-19,-19 -19,-51 0,-70l196 -196c-3,-1 -6,-3 -8,-5l-112 -112c-10,-10 -10,-26 0,-35z"/>
    <path class="fil5" d="M1904 5778l522 302c12,7 16,22 9,34l-79 137c-2,3 -4,5 -6,7l2 1c24,14 32,44 18,68l-158 274c-14,24 -44,32 -68,18l-804 -464c-24,-14 -32,-44 -18,-68l158 -274c14,-24 44,-32 68,-18l240 139c0,-3 1,-6 3,-9l79 -137c7,-12 22,-16 34,-9z"/>
    <path class="fil1" d="M2937 581c-31,-116 -42,-358 -18,-479 24,-121 84,-121 180,-69 97,52 231,157 310,235 80,79 106,132 118,168 13,36 13,56 -18,83 -31,27 -92,62 -171,90 -79,28 -176,49 -249,64 -73,15 -122,24 -153,-92z"/>
    <polygon class="fil9" points="2674,3913 4019,3913 4019,4129 3012,4129 3012,4347 2674,4347 2674,4129 2674,4129 "/>
    <path class="fil1" d="M3062 2654c-8,120 -13,343 -47,492 -35,149 -100,223 -313,377 -213,154 -575,387 -755,519 -180,132 -178,163 -99,227 79,64 234,162 322,165 88,3 107,-87 253,-187 146,-100 418,-208 623,-323 205,-115 342,-235 410,-451 68,-215 68,-526 66,-694 -2,-168 -6,-194 -28,-219 -22,-26 -63,-51 -115,-66 -52,-15 -116,-21 -165,-18 -49,2 -83,12 -106,26 -23,14 -35,32 -44,152z"/>
   </g>
  </g>
 </g>
</svg>
