<?xml version="1.0" encoding="UTF-8"?>
<!DOCTYPE svg PUBLIC "-//W3C//DTD SVG 1.1//EN" "http://www.w3.org/Graphics/SVG/1.1/DTD/svg11.dtd">
<!-- Creator: CorelDRAW X6 -->
<svg xmlns="http://www.w3.org/2000/svg" xml:space="preserve" width="10.936mm" height="11.2932mm" version="1.1" style="shape-rendering:geometricPrecision; text-rendering:geometricPrecision; image-rendering:optimizeQuality; fill-rule:evenodd; clip-rule:evenodd"
viewBox="0 0 6435 6646"
 xmlns:xlink="http://www.w3.org/1999/xlink">
 <defs>
  <style type="text/css">
   <![CDATA[
    .str0 {stroke:black;stroke-width:147.116;stroke-linecap:round}
    .fil0 {fill:none}
    .fil6 {fill:black}
    .fil2 {fill:#00B387}
    .fil7 {fill:#00B3FF}
    .fil8 {fill:#00DAB3}
    .fil9 {fill:#545400}
    .fil5 {fill:#B38754}
    .fil4 {fill:red}
    .fil1 {fill:#FFDAB3}
    .fil3 {fill:white}
   ]]>
  </style>
    <clipPath id="id0">
     <path d="M2587 2154c204,17 387,-276 518,-71 35,56 69,522 96,588 66,162 104,352 104,555 0,93 15,724 0,810 -80,462 -384,242 -718,262 -438,27 -775,-444 -718,-1073 29,-323 145,-583 208,-803 7,-23 22,-123 31,-143 85,-191 292,-142 479,-127z"/>
    </clipPath>
    <clipPath id="id1">
     <path d="M2383 356c722,0 1307,439 1307,980 0,541 -585,980 -1307,980 -722,0 -1307,-439 -1307,-980 0,-541 585,-980 1307,-980z"/>
    </clipPath>
 </defs>
 <g id="Слой_x0020_1">
  <metadata id="CorelCorpID_0Corel-Layer"/>
  <g id="_939452624">
   <rect class="fil0" y="3" width="6435" height="6643"/>
   <path class="fil1" d="M2406 2077c-61,14 -124,76 -301,147 -177,71 -469,150 -724,194 -255,45 -475,55 -667,60 -193,5 -359,5 -439,-11 -80,-16 -75,-49 -86,-84 -11,-35 -38,-73 -72,-92 -34,-19 -75,-19 -95,16 -20,35 -20,105 -20,195 0,90 0,200 13,269 13,69 38,97 259,111 221,14 637,14 971,-1 334,-15 584,-46 805,-105 221,-59 411,-148 522,-227 111,-79 144,-149 134,-217 -10,-68 -63,-134 -120,-185 -56,-50 -116,-85 -178,-71z"/>
   <path class="fil2" d="M2341 5432c-184,319 -392,537 -547,641 -111,74 -169,95 -289,26 -116,-67 -281,-158 -288,-321 -11,-237 193,-588 381,-912 316,-547 765,-915 1052,-749 172,99 490,623 370,930 -47,120 -458,-21 -526,109 -48,92 -100,185 -153,276z"/>
   <path class="fil3" d="M2587 2154c204,17 387,-276 518,-71 35,56 69,522 96,588 66,162 104,352 104,555 0,93 15,724 0,810 -80,462 -384,242 -718,262 -438,27 -775,-444 -718,-1073 29,-323 145,-583 208,-803 7,-23 22,-123 31,-143 85,-191 292,-142 479,-127z"/>
   <g style="clip-path:url(#id0)">
    <g>
     <rect class="fil4" x="36" y="2465" width="4448" height="420"/>
     <rect class="fil4" x="1108" y="3273" width="2672" height="446"/>
    </g>
   </g>
   <path class="fil0" d="M2587 2154c204,17 387,-276 518,-71 35,56 69,522 96,588 66,162 104,352 104,555 0,93 15,724 0,810 -80,462 -384,242 -718,262 -438,27 -775,-444 -718,-1073 29,-323 145,-583 208,-803 7,-23 22,-123 31,-143 85,-191 292,-142 479,-127z"/>
   <path class="fil1" d="M2383 356c722,0 1307,439 1307,980 0,541 -585,980 -1307,980 -722,0 -1307,-439 -1307,-980 0,-541 585,-980 1307,-980z"/>
   <g style="clip-path:url(#id1)">
    <g>
     <path id="1" class="fil0 str0" d="M924 1806c185,132 371,265 555,265 184,0 365,-132 547,-265"/>
    </g>
   </g>
   <path class="fil0" d="M2383 356c722,0 1307,439 1307,980 0,541 -585,980 -1307,980 -722,0 -1307,-439 -1307,-980 0,-541 585,-980 1307,-980z"/>
   <ellipse class="fil5" transform="matrix(0.258819 0.965926 -0.965926 0.258819 1076 1538.65)" rx="220" ry="112"/>
   <circle class="fil6" cx="1986" cy="1016" r="214"/>
   <circle class="fil7" cx="1910" cy="1090" r="107"/>
   <path class="fil8" d="M3502 4792c261,261 418,518 477,695 43,126 48,188 -49,286 -95,95 -225,230 -384,195 -232,-51 -517,-339 -783,-604 -447,-447 -686,-976 -452,-1210 140,-140 729,-312 994,-117 104,77 -138,437 -31,536 76,70 153,144 227,219z"/>
   <path class="fil5" d="M3545 5968l426 -427c10,-10 25,-10 35,0l112 112c2,2 4,5 5,8l1 -1c19,-19 51,-19 70,0l223 223c19,19 19,51 0,70l-656 656c-19,19 -51,19 -70,0l-223 -223c-19,-19 -19,-51 0,-70l196 -196c-3,-1 -6,-3 -8,-5l-112 -112c-10,-10 -10,-26 0,-35z"/>
   <path class="fil5" d="M1218 5778l522 302c12,7 16,22 9,34l-79 137c-2,3 -4,5 -6,7l2 1c24,14 32,44 18,68l-158 274c-14,24 -44,32 -68,18l-804 -464c-24,-14 -32,-44 -18,-68l158 -274c14,-24 44,-32 68,-18l240 139c0,-3 1,-6 3,-9l79 -137c7,-12 22,-16 34,-9z"/>
   <path class="fil1" d="M2048 581c-31,-116 -42,-358 -18,-479 24,-121 84,-121 180,-69 97,52 231,157 310,235 80,79 106,132 118,168 13,36 13,56 -18,83 -31,27 -92,62 -171,90 -79,28 -176,49 -249,64 -73,15 -122,24 -153,-92z"/>
   <polygon class="fil9" points="1987,3913 3332,3913 3332,4129 2326,4129 2326,4347 1987,4347 1987,4129 1987,4129 "/>
   <path class="fil1" d="M2406 2589c-61,14 -124,76 -301,147 -177,71 -469,150 -724,194 -255,45 -475,55 -667,60 -193,5 -359,5 -439,-11 -80,-16 -75,-49 -86,-84 -11,-35 -38,-73 -72,-92 -34,-19 -75,-19 -95,16 -20,35 -20,105 -20,195 0,90 0,200 13,269 13,69 38,97 259,111 221,14 637,14 971,-1 334,-15 584,-46 805,-105 221,-59 411,-148 522,-227 111,-79 144,-149 134,-217 -10,-68 -63,-134 -120,-185 -56,-50 -116,-85 -178,-71z"/>
  </g>
 </g>
</svg>
